<svg xmlns="http://www.w3.org/2000/svg" viewBox="1177.989 153.2 28 38.986"><defs><style>.a{fill:#87655a;}.b{fill:#6d2e2f;}</style></defs><g transform="translate(1105.989 153.2)"><path class="a" d="M228.8,424.572v.84l-.727-.42a.572.572,0,0,0-.572.991l.728.42-.728.42a.572.572,0,1,0,.572.991l.727-.42v.84a.572.572,0,1,0,1.144,0v-.84l.727.42a.572.572,0,1,0,.572-.991l-.727-.42.727-.42a.572.572,0,0,0-.572-.991l-.727.42v-.84a.572.572,0,0,0-1.144,0Z" transform="translate(-143.372 -391.651)"/><path class="b" d="M97.294,27.142a1.791,1.791,0,0,0-.957-2.634V22.667a13.695,13.695,0,1,0-20.676,0v1.841a1.791,1.791,0,0,0-.957,2.634,4.234,4.234,0,1,0,3.058,0,1.791,1.791,0,0,0-.957-2.634v-.672a13.642,13.642,0,0,0,8.621,3.54v.794a1.791,1.791,0,0,0-.957,2.634,4.234,4.234,0,1,0,3.058,0,1.791,1.791,0,0,0-.957-2.634v-.794a13.641,13.641,0,0,0,8.621-3.54v.672a1.791,1.791,0,0,0-.957,2.634,4.234,4.234,0,1,0,3.058,0ZM79.324,31.09A3.09,3.09,0,1,1,76.234,28,3.093,3.093,0,0,1,79.324,31.09Zm-3.09-4.234a.648.648,0,1,1,.648-.648A.649.649,0,0,1,76.234,26.855Zm12.856,7.9A3.09,3.09,0,1,1,86,31.662,3.093,3.093,0,0,1,89.09,34.752ZM86,30.518a.648.648,0,1,1,.648-.648A.649.649,0,0,1,86,30.518Zm0-4.272a12.55,12.55,0,1,1,12.55-12.55A12.564,12.564,0,0,1,86,26.245Zm9.117-.038a.648.648,0,1,1,.648.648A.649.649,0,0,1,95.117,26.207Zm.648,7.973a3.09,3.09,0,1,1,3.09-3.09A3.093,3.093,0,0,1,95.766,34.18Z"/><path class="a" d="M359.453,377.2a.572.572,0,0,0-.782-.209l-.727.42v-.84a.572.572,0,1,0-1.144,0v.84l-.727-.42a.572.572,0,1,0-.572.991l.727.42-.727.42a.572.572,0,1,0,.572.991l.727-.42v.84a.572.572,0,0,0,1.144,0v-.84l.727.42a.572.572,0,0,0,.572-.991l-.727-.42.727-.42A.572.572,0,0,0,359.453,377.2Z" transform="translate(-261.607 -347.314)"/><path class="a" d="M100.8,376.572v.84l-.727-.42a.572.572,0,0,0-.572.991l.727.42-.727.42a.572.572,0,1,0,.572.991l.727-.42v.84a.572.572,0,0,0,1.144,0v-.84l.727.42a.572.572,0,0,0,.572-.991l-.727-.42.727-.42a.572.572,0,0,0-.572-.991l-.727.42v-.84a.572.572,0,1,0-1.144,0Z" transform="translate(-25.138 -347.314)"/></g></svg>