<svg xmlns="http://www.w3.org/2000/svg" viewBox="451.107 1278.9 93.236 136.818"><defs><style>.a{fill:#87655a;}.b{fill:#6d2e2f;}</style></defs><g transform="translate(451.107 1278.9)"><path class="a" d="M159.8,338.273h8.646v35.915a4.06,4.06,0,0,0,4.057,4.057H196.13a4.06,4.06,0,0,0,4.057-4.057V301.155l10.605,12.074a7.007,7.007,0,0,0,5.261,2.378l20.791-.014a4.06,4.06,0,0,0,4.057-4.057v-6.212a4.06,4.06,0,0,0-4.057-4.057H222.587a6.992,6.992,0,0,1-5.274-2.406L204.2,283.792a8.967,8.967,0,0,0-6.772-3.078h-2.546l-7.863,12.662-2.742-4.869,4.841-7.807H177.3l4.841,7.807-2.742,4.855L171.534,280.7H159.81a4.06,4.06,0,0,0-4.057,4.057V334.2A4.042,4.042,0,0,0,159.8,338.273Z" transform="translate(-155.752 -241.427)"/><path class="a" d="M264.551,61.988a14.3,14.3,0,0,0,14.3-14.369V37.1a3.5,3.5,0,0,0-3.5-3.5H264.817a14.195,14.195,0,1,0-.266,28.388Z" transform="translate(-237.199 -28.899)"/><path class="b" d="M604.2,32.921h8v9.318h-6.758a3.848,3.848,0,0,0,0,7.7H612.2v4.351a3.848,3.848,0,1,0,7.7,0V49.934h7.639a3.845,3.845,0,0,0,3.848-3.848V29.073a3.845,3.845,0,0,0-3.848-3.848H619.9V15.908h5.708a3.848,3.848,0,0,0,0-7.7h-5.722V3.848a3.84,3.84,0,1,0-7.681,0V8.2h-8a3.845,3.845,0,0,0-3.848,3.848V29.059A3.848,3.848,0,0,0,604.2,32.921Zm15.7,0h3.792v9.318H619.9Zm-11.85-17.027H612.2v9.318h-4.155Z" transform="translate(-538.148)"/></g></svg>