<svg xmlns="http://www.w3.org/2000/svg" viewBox="1266.681 -91.828 36.118 37.477"><defs><style>.a{fill:#87655a;}.b{fill:#6d2e2f;}</style></defs><g transform="translate(1213.989 -81.8)"><path class="a" d="M228.166,424.343v.5l-.437-.252a.343.343,0,0,0-.343.595l.437.252-.437.252a.343.343,0,1,0,.343.595l.437-.252v.5a.343.343,0,1,0,.687,0v-.5l.437.252a.343.343,0,1,0,.343-.595l-.437-.252.437-.252a.343.343,0,0,0-.343-.595l-.437.252v-.5a.343.343,0,1,0-.687,0Z" transform="translate(-148.106 -404.584)"/><path class="b" d="M87.182,16.291a1.075,1.075,0,0,0-.574-1.581V13.605a8.22,8.22,0,1,0-12.41,0V14.71a1.075,1.075,0,0,0-.574,1.581,2.541,2.541,0,1,0,1.835,0,1.075,1.075,0,0,0-.574-1.581v-.4a8.188,8.188,0,0,0,5.175,2.125v.476a1.075,1.075,0,0,0-.574,1.581,2.541,2.541,0,1,0,1.835,0,1.075,1.075,0,0,0-.574-1.581v-.476a8.188,8.188,0,0,0,5.175-2.125v.4a1.075,1.075,0,0,0-.574,1.581,2.542,2.542,0,1,0,1.835,0ZM76.4,18.66a1.855,1.855,0,1,1-1.855-1.855A1.857,1.857,0,0,1,76.4,18.66Zm-1.855-2.541a.389.389,0,1,1,.389-.389A.39.39,0,0,1,74.541,16.119Zm7.716,4.74A1.855,1.855,0,1,1,80.4,19,1.857,1.857,0,0,1,82.258,20.859ZM80.4,18.317a.389.389,0,1,1,.389-.389A.39.39,0,0,1,80.4,18.317Zm0-2.564A7.533,7.533,0,1,1,87.936,8.22,7.541,7.541,0,0,1,80.4,15.753Zm5.472-.023a.389.389,0,1,1,.389.389A.39.39,0,0,1,85.875,15.73Zm.389,4.785a1.855,1.855,0,1,1,1.855-1.855A1.857,1.857,0,0,1,86.264,20.515Z"/><path class="a" d="M357.758,376.721a.343.343,0,0,0-.469-.126l-.437.252v-.5a.343.343,0,1,0-.687,0v.5l-.437-.252a.343.343,0,0,0-.343.595l.437.252-.437.252a.343.343,0,1,0,.343.595l.437-.252v.5a.343.343,0,0,0,.687,0v-.5l.437.252a.343.343,0,0,0,.344-.595l-.437-.252.437-.252A.343.343,0,0,0,357.758,376.721Z" transform="translate(-270.245 -358.782)"/><path class="a" d="M100.166,376.343v.5l-.437-.252a.343.343,0,0,0-.343.595l.437.252-.437.252a.343.343,0,1,0,.343.595l.437-.252v.5a.343.343,0,0,0,.687,0v-.5l.437.252a.343.343,0,0,0,.343-.595l-.437-.252.437-.252a.343.343,0,0,0-.343-.595l-.437.252v-.5a.343.343,0,1,0-.687,0Z" transform="translate(-25.968 -358.782)"/></g><g transform="translate(1289.005 -94.553) rotate(20)"><path class="b" d="M95.8,105.693l1.132-1.494a.453.453,0,0,0,.029-.492l-1.2-2.042a.493.493,0,0,0-.406-.232H91.924a.485.485,0,0,0-.407.24l-1.141,2.054a.463.463,0,0,0,.031.486l1.1,1.493a5.9,5.9,0,1,0,4.293-.013Zm-2.13,9.744A4.239,4.239,0,1,1,97.91,111.2,4.244,4.244,0,0,1,93.671,115.437Z" transform="translate(-84.752 -95.806)"/><path class="a" d="M177.83,3.49a.8.8,0,0,0,.8-.8V.8a.8.8,0,0,0-1.593,0v1.9A.8.8,0,0,0,177.83,3.49Z" transform="translate(-169.065 0)"/><path class="a" d="M36.884,144.987a.8.8,0,0,0-.8-.8h-1.9a.8.8,0,1,0,0,1.593h1.9A.8.8,0,0,0,36.884,144.987Z" transform="translate(-33.394 -136.192)"/><path class="a" d="M290.266,144.19h-1.9a.8.8,0,1,0,0,1.593h1.9a.8.8,0,1,0,0-1.593Z" transform="translate(-273.472 -136.191)"/><path class="a" d="M76.655,46.163a.8.8,0,0,0,1.126-1.126L76.44,43.695a.8.8,0,0,0-1.127,1.127Z" transform="translate(-72.768 -41.051)"/><path class="a" d="M255.607,46.4a.791.791,0,0,0,.563-.233l1.342-1.342a.8.8,0,0,0-1.127-1.126l-1.342,1.342a.8.8,0,0,0,.563,1.36Z" transform="translate(-242.528 -41.054)"/></g><g transform="matrix(0.951, -0.309, 0.309, 0.951, 1164.775, -57.459)"><path d="M157.106,168.2a.138.138,0,0,1-.006.033.242.242,0,0,1,.041-.014A.149.149,0,0,0,157.106,168.2Z" transform="translate(-51.732 -153.837)"/><path d="M841.436,170.3l-.036.019a.243.243,0,0,1,.041.014A.07.07,0,0,1,841.436,170.3Z" transform="translate(-717.16 -155.879)"/><path class="a" d="M11.075,26.4a.629.629,0,1,1,.629.629A.632.632,0,0,1,11.075,26.4Zm-1.561-.02a.629.629,0,1,1,.629.629A.629.629,0,0,1,9.514,26.38Zm3.05-.2a.629.629,0,1,1,.629.629A.629.629,0,0,1,12.564,26.176Zm-4.536-.061a.629.629,0,1,1,.629.629A.629.629,0,0,1,8.028,26.115Zm5.758-.485a.629.629,0,1,1,.629.629A.629.629,0,0,1,13.786,25.63Zm-6.98-.061a.629.629,0,1,1,.629.629A.632.632,0,0,1,6.806,25.57Zm8.017-.822a.629.629,0,1,1,.629.629A.629.629,0,0,1,14.823,24.748Zm-9.054-.061a.629.629,0,1,1,.628.628A.628.628,0,0,1,5.769,24.687Zm10.011-.916a.629.629,0,1,1,.629.629A.629.629,0,0,1,15.781,23.771ZM4.812,23.711a.629.629,0,1,1,.629.629A.629.629,0,0,1,4.812,23.711Zm-.77-1.062a.629.629,0,1,1,.629.629A.629.629,0,0,1,4.042,22.649Zm-.717-1.117a.629.629,0,1,1,.629.629A.629.629,0,0,1,3.325,21.532Zm7.626-.963a.687.687,0,1,1,.687.687A.685.685,0,0,1,10.951,20.569Zm-1.428-.061a.687.687,0,1,1,.687.687A.685.685,0,0,1,9.523,20.508Zm3.491.546a.687.687,0,1,1,.606-1.006A.686.686,0,0,1,14.81,19.4a.695.695,0,1,1,.093.157.687.687,0,0,1-1.241.587.684.684,0,0,1-.643.91Zm-10.274-.64a.629.629,0,1,1,.629.629A.632.632,0,0,1,2.741,20.415Zm5.409-.1a.681.681,0,0,1,.039-.226.687.687,0,0,1-1.293-.323.7.7,0,0,1,.052-.265.686.686,0,1,1,.146-.422.714.714,0,0,1-.052.265.686.686,0,0,1,1.189.648.687.687,0,1,1-.08.323ZM2.181,19.22a.629.629,0,1,1,.629.629A.628.628,0,0,1,2.181,19.22Zm2.513-1.084a.687.687,0,1,1,.687.687A.689.689,0,0,1,4.694,18.137Zm-2.937-.171a.629.629,0,1,1,.629.629A.628.628,0,0,1,1.756,17.965Zm14.91-.808a.646.646,0,0,1,.646-.645.626.626,0,0,1,.2.033.675.675,0,0,1-.246-.524.686.686,0,0,1,.687-.687.612.612,0,0,1,.127.011.623.623,0,0,1,.4-1.1.67.67,0,0,1,.1.008.624.624,0,0,1,.367-1.1.622.622,0,0,1,.4-1.1.589.589,0,0,1,.1.008.624.624,0,0,1,.129-1.213.59.59,0,0,1,.29-1.073.59.59,0,0,1,.193-1.147.542.542,0,0,1,.05-1.045.545.545,0,0,1-.345-.5.538.538,0,0,1,.461-.535.54.54,0,0,1-.11-1.04.542.542,0,0,1-.16-1.029.551.551,0,0,1-.348-.317.561.561,0,0,1-.154.213.542.542,0,0,1-.176.9.54.54,0,0,1,.127.35.546.546,0,0,1-.369.516.6.6,0,0,1-.389,1,.594.594,0,0,1,.127.37.6.6,0,0,1-.507.6.564.564,0,0,1,.05.237.6.6,0,0,1-.6.6.587.587,0,0,1-.124-.014.594.594,0,0,1,.124.364.6.6,0,0,1-.6.6.579.579,0,0,1-.138-.017.613.613,0,0,1,.063.276.641.641,0,0,1-.642.642.634.634,0,0,1-.27-.061.643.643,0,0,1-1,.626.642.642,0,0,1-1.111.51.291.291,0,0,1,0,.05.643.643,0,0,1-1.2.326.643.643,0,0,1-1.233.031.643.643,0,0,1-1.127.245.652.652,0,0,1-.174-.3.643.643,0,0,1-1.233-.03.643.643,0,0,1-1.2-.326c0-.017,0-.033,0-.05a.643.643,0,0,1-1.117-.433c0-.025,0-.052.005-.077a.652.652,0,0,1-.369.116.643.643,0,0,1-.642-.643.573.573,0,0,1,.008-.1.641.641,0,0,1-.913-.582.651.651,0,0,1,.063-.276.574.574,0,0,1-.138.016.6.6,0,0,1-.48-.968.643.643,0,0,1-.124.014.6.6,0,0,1-.6-.6.613.613,0,0,1,.05-.237.605.605,0,0,1-.507-.6.6.6,0,0,1,.127-.369.6.6,0,0,1-.388-1,.545.545,0,0,1-.37-.516.539.539,0,0,1,.127-.35A.543.543,0,0,1,2.4,4.3a.541.541,0,0,1-.154-.212.544.544,0,0,1-.347.317.541.541,0,0,1-.163,1.029.54.54,0,0,1-.11,1.039.541.541,0,0,1,.116,1.04.542.542,0,0,1,.05,1.046.59.59,0,0,1,.193,1.147.59.59,0,0,1,.289,1.073.624.624,0,0,1,.13,1.213.653.653,0,0,1,.1-.008.623.623,0,0,1,.4,1.1.623.623,0,0,1,.367,1.1.591.591,0,0,1,.1-.009.623.623,0,0,1,.4,1.1,1.008,1.008,0,0,1,.127-.011.685.685,0,0,1,.441,1.21.626.626,0,0,1,.2-.033.645.645,0,1,1-.645.646.64.64,0,0,1,.223-.488.671.671,0,0,1-.226.039.687.687,0,0,1-.425-1.227.677.677,0,0,1-.1.008.623.623,0,0,1-.4-1.1.586.586,0,0,1-.1.009.623.623,0,0,1-.4-1.1.624.624,0,0,1-.163-1.216.654.654,0,0,1-.1.008.623.623,0,0,1-.345-1.142.591.591,0,0,1-.124-1.144A.589.589,0,0,1,1.2,9.264a.588.588,0,0,1-.267.3A.579.579,0,0,1,.965,10.6a.585.585,0,0,1,.411.557.579.579,0,0,1-.336.527.58.58,0,0,1,.2,1.108.582.582,0,0,1,.16,1.122.573.573,0,1,1-.229.036.579.579,0,0,1-.218-1.108.581.581,0,0,1-.533-.579.574.574,0,0,1,.356-.529.581.581,0,0,1-.237-1.089.581.581,0,0,1-.1-1.068A.58.58,0,0,1,.438,8.525a.528.528,0,0,1-.077-.96.561.561,0,0,1,0-1.048.541.541,0,0,1,.066-.943.542.542,0,0,1,.1-.932.55.55,0,0,1-.114-.331.54.54,0,0,1,.45-.533A.529.529,0,0,1,.8,3.525.542.542,0,0,1,1.2,3a.294.294,0,0,1,0-.05.541.541,0,0,1,.458-.535V2.411a.541.541,0,0,1,.54-.541.544.544,0,0,1,.384-.386A.538.538,0,0,1,2.984,1.2a.542.542,0,0,1,.524-.4c.016,0,.03,0,.047,0a.541.541,0,0,1,.538-.48.436.436,0,0,1,.088.009.541.541,0,1,1,.5.756.441.441,0,0,1-.088-.009.54.54,0,0,1-.5.326c-.017,0-.031,0-.047,0a.549.549,0,0,1-.281.417.544.544,0,0,1-.394.5.527.527,0,0,1,.055.237.544.544,0,0,1-.149.372.534.534,0,0,1,.047.221.54.54,0,0,1-.16.383.533.533,0,0,1,.138.359.543.543,0,0,1-.171.394.548.548,0,0,1,.193.417.538.538,0,0,1-.127.35.544.544,0,0,1,.348.508.553.553,0,0,1-.113.331.6.6,0,0,1,.323.951.6.6,0,0,1,.491.839.6.6,0,0,1,.383.96.654.654,0,0,1,.125-.014.6.6,0,0,1,.6.6.591.591,0,0,1-.05.243.641.641,0,0,1,.8.72.634.634,0,0,1,.27-.061.641.641,0,0,1,.642.643.7.7,0,0,1-.005.077.655.655,0,0,1,.369-.116.642.642,0,0,1,.643.643c0,.017,0,.033,0,.05a.643.643,0,0,1,1.1.267.642.642,0,0,1,1.178.171.689.689,0,0,1,1.28.061.642.642,0,0,1,1.178-.171.642.642,0,0,1,1.095-.268.284.284,0,0,1,0-.05.641.641,0,0,1,.643-.642.633.633,0,0,1,.369.115c0-.025-.005-.05-.005-.077a.641.641,0,0,1,.643-.643.633.633,0,0,1,.27.061A.641.641,0,0,1,16.4,9.5a.648.648,0,0,1,.165.022.643.643,0,0,1-.05-.243.6.6,0,0,1,.728-.59.591.591,0,0,1-.124-.364.6.6,0,0,1,.507-.6.564.564,0,0,1-.05-.237.606.606,0,0,1,.541-.6.592.592,0,0,1-.127-.369.6.6,0,0,1,.449-.582.543.543,0,0,1,.235-.838.547.547,0,0,1,.066-.767.543.543,0,0,1-.171-.394.537.537,0,0,1,.138-.359.533.533,0,0,1-.16-.383.554.554,0,0,1,.047-.221.534.534,0,0,1-.149-.372.527.527,0,0,1,.055-.237.547.547,0,0,1-.394-.5.537.537,0,0,1-.281-.416.324.324,0,0,1-.047,0,.537.537,0,0,1-.5-.325.507.507,0,0,1-.088.008.54.54,0,1,1,.5-.756.512.512,0,0,1,.088-.008.54.54,0,0,1,.538.48.258.258,0,0,1,.047,0,.54.54,0,0,1,.525.4.55.55,0,0,1,.408.287.542.542,0,0,1,.383.386.542.542,0,0,1,.541.541V2.48a.543.543,0,0,1,.458.535.287.287,0,0,1,0,.05.542.542,0,0,1,.4.521.522.522,0,0,1-.063.254.54.54,0,0,1,.337.863.544.544,0,0,1,.322.5.537.537,0,0,1-.22.436.541.541,0,0,1,.066.943.562.562,0,0,1,0,1.049.528.528,0,0,1-.077.96.579.579,0,0,1,.008,1.053.581.581,0,0,1-.1,1.068A.581.581,0,0,1,21.1,11.8a.581.581,0,0,1-.2,1.106.579.579,0,0,1-.218,1.108.588.588,0,1,1-.229-.036.582.582,0,0,1,.16-1.123.576.576,0,0,1-.345-.529.584.584,0,0,1,.541-.579.582.582,0,0,1,.074-1.084.58.58,0,0,1,.031-1.035.566.566,0,0,1-.267-.3.589.589,0,0,1-.532.474.592.592,0,0,1-.124,1.145.616.616,0,0,1,.278.518.623.623,0,0,1-.623.624.584.584,0,0,1-.1-.009.624.624,0,0,1-.163,1.216.623.623,0,0,1-.4,1.1.671.671,0,0,1-.1-.008.623.623,0,0,1-.4,1.1.586.586,0,0,1-.1-.008.687.687,0,0,1-.651,1.189.645.645,0,1,1-1.068.488Zm3.574-8.514a.593.593,0,0,1,.38.359.585.585,0,0,1,.394-.441.536.536,0,0,1-.265-.309A.541.541,0,0,1,20.241,8.643ZM.83,8.5a.575.575,0,0,1,.4.439A.584.584,0,0,1,1.6,8.586a.538.538,0,0,1-.51-.392A.524.524,0,0,1,.83,8.5Zm19.6-.9a.546.546,0,0,1,.32.342.525.525,0,0,1,.306-.337.565.565,0,0,1-.262-.281A.553.553,0,0,1,20.428,7.6ZM.8,7.54a.526.526,0,0,1,.3.34.537.537,0,0,1,.32-.342.541.541,0,0,1-.364-.276A.553.553,0,0,1,.8,7.54ZM20.392,6.534a.547.547,0,0,1,.414.317.58.58,0,0,1,.2-.223.515.515,0,0,1-.287-.276A.535.535,0,0,1,20.392,6.534ZM.841,6.572a.57.57,0,0,1,.2.223.536.536,0,0,1,.414-.317.552.552,0,0,1-.331-.184A.568.568,0,0,1,.841,6.572ZM20.375,5.464a.539.539,0,0,1,.428.311.531.531,0,0,1,.091-.085.539.539,0,0,1-.3-.378A.5.5,0,0,1,20.375,5.464ZM.954,5.632a.511.511,0,0,1,.091.086.54.54,0,0,1,.428-.312.547.547,0,0,1-.218-.152A.543.543,0,0,1,.954,5.632ZM20.337,4.44a.292.292,0,0,1,.042.014c0-.011,0-.022,0-.033A.24.24,0,0,1,20.337,4.44ZM1.467,4.4a.235.235,0,0,1,.042-.014l-.036-.02A.079.079,0,0,1,1.467,4.4ZM19.49,3.563a.568.568,0,0,1,.119.182.565.565,0,0,1,.141-.2.517.517,0,0,1-.152-.168A.554.554,0,0,1,19.49,3.563ZM2.1,3.489a.56.56,0,0,1,.138.2.522.522,0,0,1,.121-.182.51.51,0,0,1-.107-.184A.559.559,0,0,1,2.1,3.489Zm-.75,13.34a.582.582,0,1,1,.582.582A.581.581,0,0,1,1.351,16.829Zm-.309-1.181a.582.582,0,1,1,.582.582A.581.581,0,0,1,1.042,15.649Z" transform="translate(103.901 9.999)"/><path class="b" d="M804.9,601.782a.582.582,0,1,0,.582-.582A.582.582,0,0,0,804.9,601.782Z" transform="translate(-681.667 -574.895)"/><path class="b" d="M816.1,559.082a.582.582,0,1,0,.582-.582A.582.582,0,0,0,816.1,559.082Z" transform="translate(-692.558 -533.373)"/><path class="b" d="M676.1,645.587a.687.687,0,1,0,.687-.687A.687.687,0,0,0,676.1,645.587Z" transform="translate(-556.419 -617.39)"/><path class="b" d="M786.9,641.329a.629.629,0,1,0,.629-.629A.629.629,0,0,0,786.9,641.329Z" transform="translate(-664.163 -613.306)"/><path class="b" d="M771.4,686.929a.629.629,0,1,0,.629-.629A.629.629,0,0,0,771.4,686.929Z" transform="translate(-649.09 -657.648)"/><path class="b" d="M751.2,730.229a.629.629,0,1,0,.629-.629A.629.629,0,0,0,751.2,730.229Z" transform="translate(-629.447 -699.754)"/><path class="b" d="M730,770.729a.629.629,0,1,0,1.258,0h0a.629.629,0,0,0-1.258,0Z" transform="translate(-608.832 -739.137)"/><path class="b" d="M704,811.129a.629.629,0,1,0,.629-.629A.629.629,0,0,0,704,811.129Z" transform="translate(-583.549 -778.423)"/></g></svg>