<svg xmlns="http://www.w3.org/2000/svg" viewBox="447 157.429 28.926 36.546"><defs><style>.a{fill:#fff;}.b{fill:#87655a;}.c{fill:#6d2e2f;}</style></defs><g transform="translate(398.097 157.429)"><g transform="translate(48.903)"><path class="a" d="M98,147.8a1.512,1.512,0,0,1,.45.068,1.521,1.521,0,1,0-1.9,1.9A1.521,1.521,0,0,1,98,147.8Z" transform="translate(-90.532 -131.216)"/><path class="a" d="M98,104.135a1.512,1.512,0,0,1,.45.068,1.521,1.521,0,1,0-1.9,1.9A1.521,1.521,0,0,1,98,104.135Z" transform="translate(-90.532 -92.189)"/><path class="a" d="M69.835,191.518a4.844,4.844,0,0,1,2.871.939,4.869,4.869,0,1,0-6.8,6.8,4.868,4.868,0,0,1,3.932-7.742Z" transform="translate(-62.31 -170.246)"/><path class="b" d="M78.773,200.457a4.868,4.868,0,0,0-3.932,7.742,4.868,4.868,0,0,0,6.8-6.8h0A4.844,4.844,0,0,0,78.773,200.457Z" transform="translate(-71.249 -179.184)"/><path class="b" d="M106.44,112.578a.384.384,0,1,0,.45.068h0A1.512,1.512,0,0,0,106.44,112.578Z" transform="translate(-98.975 -100.631)"/><path class="b" d="M106.44,156.239a.384.384,0,1,0,.45.068h0A1.512,1.512,0,0,0,106.44,156.239Z" transform="translate(-98.975 -139.659)"/><path class="c" d="M57.763,19.082a3.107,3.107,0,0,0-.321-4.3,3.111,3.111,0,0,0-1.28-5.326V7.182a2.068,2.068,0,0,0-1.986-2.063A1.764,1.764,0,1,1,54.1,1.592h0a1.858,1.858,0,0,1,1.3.558,1.935,1.935,0,0,0,2.891.473.8.8,0,1,0-.947-1.279c-.241.179-.371.247-.674-.154a3.361,3.361,0,0,0-5.927,2.164,3.357,3.357,0,0,0,3.353,3.353.476.476,0,0,1,.476.475V9.456a3.111,3.111,0,0,0-1.28,5.326,3.107,3.107,0,0,0-.321,4.3,6.463,6.463,0,1,0,4.794,0Zm-2.4-8.138h.006a1.521,1.521,0,1,1-.006,0Zm0,4.633A1.521,1.521,0,1,1,53.845,17.1,1.524,1.524,0,0,1,55.366,15.578Zm0,14.376a4.868,4.868,0,1,1,4.871-4.871A4.845,4.845,0,0,1,55.366,29.954Z" transform="translate(-48.903)"/></g><g transform="translate(64.903 5)"><path class="a" d="M98,147.8a1.512,1.512,0,0,1,.45.068,1.521,1.521,0,1,0-1.9,1.9A1.521,1.521,0,0,1,98,147.8Z" transform="translate(-90.532 -131.216)"/><path class="a" d="M98,104.135a1.512,1.512,0,0,1,.45.068,1.521,1.521,0,1,0-1.9,1.9A1.521,1.521,0,0,1,98,104.135Z" transform="translate(-90.532 -92.189)"/><path class="a" d="M69.835,191.518a4.844,4.844,0,0,1,2.871.939,4.869,4.869,0,1,0-6.8,6.8,4.868,4.868,0,0,1,3.932-7.742Z" transform="translate(-62.31 -170.246)"/><path class="b" d="M78.773,200.457a4.868,4.868,0,0,0-3.932,7.742,4.868,4.868,0,0,0,6.8-6.8h0A4.844,4.844,0,0,0,78.773,200.457Z" transform="translate(-71.249 -179.184)"/><path class="b" d="M106.44,112.578a.384.384,0,1,0,.45.068h0A1.512,1.512,0,0,0,106.44,112.578Z" transform="translate(-98.975 -100.631)"/><path class="b" d="M106.44,156.239a.384.384,0,1,0,.45.068h0A1.512,1.512,0,0,0,106.44,156.239Z" transform="translate(-98.975 -139.659)"/><path class="c" d="M57.763,19.082a3.107,3.107,0,0,0-.321-4.3,3.111,3.111,0,0,0-1.28-5.326V7.182a2.068,2.068,0,0,0-1.986-2.063A1.764,1.764,0,1,1,54.1,1.592h0a1.858,1.858,0,0,1,1.3.558,1.935,1.935,0,0,0,2.891.473.8.8,0,1,0-.947-1.279c-.241.179-.371.247-.674-.154a3.361,3.361,0,0,0-5.927,2.164,3.357,3.357,0,0,0,3.353,3.353.476.476,0,0,1,.476.475V9.456a3.111,3.111,0,0,0-1.28,5.326,3.107,3.107,0,0,0-.321,4.3,6.463,6.463,0,1,0,4.794,0Zm-2.4-8.138h.006a1.521,1.521,0,1,1-.006,0Zm0,4.633A1.521,1.521,0,1,1,53.845,17.1,1.524,1.524,0,0,1,55.366,15.578Zm0,14.376a4.868,4.868,0,1,1,4.871-4.871A4.845,4.845,0,0,1,55.366,29.954Z" transform="translate(-48.903)"/></g></g></svg>