<svg xmlns="http://www.w3.org/2000/svg" viewBox="744.001 151.999 34.147 42.201"><defs><style>.a{fill:#6d2e2f;}</style></defs><g transform="translate(640.1 142)"><path d="M157.109,168.2a.216.216,0,0,1-.009.052.378.378,0,0,1,.065-.022A.232.232,0,0,0,157.109,168.2Z" transform="translate(-50.909 -151.388)"/><path d="M841.456,170.3l-.056.03a.382.382,0,0,1,.065.022A.109.109,0,0,1,841.456,170.3Z" transform="translate(-705.742 -153.397)"/><path class="a" d="M-622.807-100.781a.987.987,0,0,1,.982-.982.981.981,0,0,1,.982.982.981.981,0,0,1-.982.982A.981.981,0,0,1-622.807-100.781Zm-2.437-.031a.981.981,0,0,1,.982-.982.981.981,0,0,1,.982.982.981.981,0,0,1-.982.982A.981.981,0,0,1-625.244-100.812Zm4.762-.319a.982.982,0,0,1,.982-.982.982.982,0,0,1,.982.982.981.981,0,0,1-.982.982A.981.981,0,0,1-620.483-101.13Zm-7.083-.094a.981.981,0,0,1,.982-.982.981.981,0,0,1,.982.982.981.981,0,0,1-.982.982A.981.981,0,0,1-627.565-101.225Zm8.991-.758a.981.981,0,0,1,.982-.982.981.981,0,0,1,.982.982.981.981,0,0,1-.982.982A.981.981,0,0,1-618.575-101.983Zm-10.9-.094a.986.986,0,0,1,.982-.982.981.981,0,0,1,.982.982.982.982,0,0,1-.982.982A.982.982,0,0,1-629.474-102.077Zm12.518-1.283a.981.981,0,0,1,.982-.982.981.981,0,0,1,.982.982.981.981,0,0,1-.982.982A.981.981,0,0,1-616.955-103.361Zm-14.136-.094a.981.981,0,0,1,.981-.982.981.981,0,0,1,.982.982.981.981,0,0,1-.982.981A.981.981,0,0,1-631.092-103.455Zm15.631-1.43a.981.981,0,0,1,.982-.982.981.981,0,0,1,.982.982.981.981,0,0,1-.982.982A.981.981,0,0,1-615.461-104.885Zm-17.126-.094a.981.981,0,0,1,.982-.982.981.981,0,0,1,.982.982.981.981,0,0,1-.982.982A.981.981,0,0,1-632.587-104.98Zm-1.2-1.658a.981.981,0,0,1,.982-.982.981.981,0,0,1,.982.982.981.981,0,0,1-.982.982A.981.981,0,0,1-633.788-106.637Zm-1.12-1.744a.981.981,0,0,1,.982-.982.981.981,0,0,1,.982.982.981.981,0,0,1-.982.982A.981.981,0,0,1-634.908-108.382Zm11.907-1.5a1.07,1.07,0,0,1,1.072-1.073,1.073,1.073,0,0,1,1.073,1.073,1.072,1.072,0,0,1-1.073,1.072A1.072,1.072,0,0,1-623-109.885Zm-2.23-.1a1.069,1.069,0,0,1,1.072-1.072,1.072,1.072,0,0,1,1.072,1.072,1.072,1.072,0,0,1-1.072,1.073A1.072,1.072,0,0,1-625.231-109.98Zm5.451.853a1.072,1.072,0,0,1-1.073-1.072,1.073,1.073,0,0,1,1.073-1.073,1.074,1.074,0,0,1,.947.573,1.073,1.073,0,0,1-.06-.354,1.073,1.073,0,0,1,1.073-1.072,1.081,1.081,0,0,1,.844.413,1.077,1.077,0,0,1-.082-.413,1.072,1.072,0,0,1,1.072-1.073,1.072,1.072,0,0,1,1.072,1.073,1.072,1.072,0,0,1-1.072,1.072,1.082,1.082,0,0,1-.844-.413,1.081,1.081,0,0,1,.082.413,1.072,1.072,0,0,1-1.072,1.073,1.071,1.071,0,0,1-.948-.569,1.068,1.068,0,0,1,.06.353,1.069,1.069,0,0,1-1.064,1.068Zm-16.041-1a.987.987,0,0,1,.982-.982.981.981,0,0,1,.982.982.981.981,0,0,1-.982.982A.981.981,0,0,1-635.82-110.126Zm8.445-.164a1.064,1.064,0,0,1,.06-.353,1.079,1.079,0,0,1-.948.568,1.072,1.072,0,0,1-1.072-1.072,1.1,1.1,0,0,1,.082-.414,1.066,1.066,0,0,1-.844.414,1.072,1.072,0,0,1-1.072-1.073,1.072,1.072,0,0,1,1.072-1.072,1.072,1.072,0,0,1,1.072,1.072,1.115,1.115,0,0,1-.081.414,1.066,1.066,0,0,1,.843-.414,1.073,1.073,0,0,1,1.073,1.073,1.064,1.064,0,0,1-.06.353,1.079,1.079,0,0,1,.947-.568,1.072,1.072,0,0,1,1.073,1.072,1.075,1.075,0,0,1-1.073,1.072A1.072,1.072,0,0,1-627.376-110.29Zm-9.319-1.7a.981.981,0,0,1,.982-.981.982.982,0,0,1,.982.981.982.982,0,0,1-.982.982A.981.981,0,0,1-636.694-111.991Zm3.923-1.692a1.075,1.075,0,0,1,1.072-1.073,1.072,1.072,0,0,1,1.072,1.073,1.072,1.072,0,0,1-1.072,1.072A1.072,1.072,0,0,1-632.771-113.683Zm-4.586-.267a.981.981,0,0,1,.982-.981.981.981,0,0,1,.982.981.981.981,0,0,1-.982.982A.981.981,0,0,1-637.358-113.95Zm23.279-1.262a1.008,1.008,0,0,1,1.008-1.007.977.977,0,0,1,.319.051,1.054,1.054,0,0,1-.383-.818,1.072,1.072,0,0,1,1.072-1.072.954.954,0,0,1,.2.017.971.971,0,0,1-.353-.75.972.972,0,0,1,.973-.973,1.046,1.046,0,0,1,.159.013.967.967,0,0,1-.353-.749.975.975,0,0,1,.926-.974.972.972,0,0,1-.354-.749.973.973,0,0,1,.974-.973.922.922,0,0,1,.159.013.973.973,0,0,1-.672-.926.975.975,0,0,1,.874-.968.921.921,0,0,1-.4-.758.925.925,0,0,1,.849-.918.923.923,0,0,1-.616-.869.921.921,0,0,1,.917-.922.849.849,0,0,1-.586-.806.846.846,0,0,1,.663-.826.851.851,0,0,1-.538-.788.84.84,0,0,1,.719-.835.847.847,0,0,1-.719-.835.842.842,0,0,1,.547-.788.845.845,0,0,1-.741-.84.846.846,0,0,1,.49-.767.86.86,0,0,1-.543-.495.877.877,0,0,1-.241.332.848.848,0,0,1,.267.616.849.849,0,0,1-.543.792.843.843,0,0,1,.2.547.853.853,0,0,1-.577.806.947.947,0,0,1,.237.624.946.946,0,0,1-.844.939.927.927,0,0,1,.2.578.944.944,0,0,1-.792.93.881.881,0,0,1,.077.37.943.943,0,0,1-.943.943.917.917,0,0,1-.193-.022.927.927,0,0,1,.193.569.943.943,0,0,1-.942.943.9.9,0,0,1-.216-.026.958.958,0,0,1,.1.431,1,1,0,0,1-1,1,.99.99,0,0,1-.422-.094,1,1,0,0,1,.013.155,1,1,0,0,1-1,1,.99.99,0,0,1-.577-.181,1.007,1.007,0,0,1,.009.121,1,1,0,0,1-1,1,1,1,0,0,1-.741-.328.456.456,0,0,1,0,.077,1,1,0,0,1-1,1,1,1,0,0,1-.866-.495,1,1,0,0,1-.968.745,1,1,0,0,1-.957-.7,1,1,0,0,1-.973.762,1,1,0,0,1-.787-.38,1.019,1.019,0,0,1-.272-.473,1,1,0,0,1-.956.7,1,1,0,0,1-.969-.744,1,1,0,0,1-.865.5,1,1,0,0,1-1-1c0-.026,0-.051,0-.077a1,1,0,0,1-.741.327,1,1,0,0,1-1-1c0-.039,0-.082.008-.121a1.018,1.018,0,0,1-.577.181,1,1,0,0,1-1-1,.894.894,0,0,1,.013-.155,1,1,0,0,1-.422.094,1,1,0,0,1-1-1,1.017,1.017,0,0,1,.1-.43.9.9,0,0,1-.215.025.943.943,0,0,1-.943-.943.948.948,0,0,1,.193-.568,1,1,0,0,1-.193.022.943.943,0,0,1-.943-.943.956.956,0,0,1,.077-.37.945.945,0,0,1-.792-.931.934.934,0,0,1,.2-.577.946.946,0,0,1-.844-.939.943.943,0,0,1,.238-.625.851.851,0,0,1-.578-.805.841.841,0,0,1,.2-.546.849.849,0,0,1-.543-.793.85.85,0,0,1,.266-.616.845.845,0,0,1-.241-.331.849.849,0,0,1-.542.495.846.846,0,0,1,.49.767.848.848,0,0,1-.745.84.842.842,0,0,1,.547.787.841.841,0,0,1-.719.835.848.848,0,0,1,.719.836.845.845,0,0,1-.538.787.85.85,0,0,1,.663.827.842.842,0,0,1-.586.805.918.918,0,0,1,.917.921.925.925,0,0,1-.616.87.917.917,0,0,1,.848.917.918.918,0,0,1-.4.758.976.976,0,0,1,.874.969.97.97,0,0,1-.671.925,1.019,1.019,0,0,1,.159-.013.972.972,0,0,1,.973.973.976.976,0,0,1-.353.75.975.975,0,0,1,.926.973.974.974,0,0,1-.354.75.924.924,0,0,1,.16-.014.973.973,0,0,1,.973.974.972.972,0,0,1-.354.749,1.572,1.572,0,0,1,.2-.017,1.072,1.072,0,0,1,1.072,1.072,1.075,1.075,0,0,1-.383.818.977.977,0,0,1,.319-.051A1.009,1.009,0,0,1-632-115.3a1.009,1.009,0,0,1-1.008,1.007,1.008,1.008,0,0,1-1.007-1.007,1,1,0,0,1,.348-.762,1.048,1.048,0,0,1-.353.06,1.073,1.073,0,0,1-1.073-1.073,1.068,1.068,0,0,1,.41-.843,1.057,1.057,0,0,1-.159.013.972.972,0,0,1-.973-.973.976.976,0,0,1,.353-.75.913.913,0,0,1-.159.014.973.973,0,0,1-.973-.974.974.974,0,0,1,.353-.749.976.976,0,0,1-.926-.974.974.974,0,0,1,.672-.925,1.02,1.02,0,0,1-.159.013.973.973,0,0,1-.974-.973.976.976,0,0,1,.436-.81.928.928,0,0,1-.81-.917.923.923,0,0,1,.616-.869.92.92,0,0,1-.831-.741.918.918,0,0,1-.418.473.9.9,0,0,1,.521.818.911.911,0,0,1-.474.8.913.913,0,0,1,.642.87.9.9,0,0,1-.525.823.906.906,0,0,1,.843.9.907.907,0,0,1-.538.827.906.906,0,0,1,.832.9.905.905,0,0,1-.581.848.906.906,0,0,1,.878.9.909.909,0,0,1-.909.909.909.909,0,0,1-.908-.909.907.907,0,0,1,.581-.849.9.9,0,0,1-.878-.9.907.907,0,0,1,.538-.827.906.906,0,0,1-.832-.9.9.9,0,0,1,.555-.826.908.908,0,0,1-.843-.9.911.911,0,0,1,.473-.8.913.913,0,0,1-.642-.87.906.906,0,0,1,.478-.8.9.9,0,0,1-.521-.818.906.906,0,0,1,.534-.827.821.821,0,0,1-.546-.775.824.824,0,0,1,.427-.724.874.874,0,0,1-.564-.818.874.874,0,0,1,.56-.818.844.844,0,0,1-.383-.706.841.841,0,0,1,.487-.767.844.844,0,0,1-.345-.68.839.839,0,0,1,.5-.775.859.859,0,0,1-.177-.517.843.843,0,0,1,.7-.832.825.825,0,0,1-.1-.4.845.845,0,0,1,.62-.814.457.457,0,0,1,0-.077.845.845,0,0,1,.716-.836v-.013a.845.845,0,0,1,.843-.844.849.849,0,0,1,.6-.6.839.839,0,0,1,.637-.447.846.846,0,0,1,.818-.629c.025,0,.047,0,.073,0a.845.845,0,0,1,.84-.75.68.68,0,0,1,.138.014A.846.846,0,0,1-632.8-142a.845.845,0,0,1,.844.844.845.845,0,0,1-.844.844.687.687,0,0,1-.138-.014.843.843,0,0,1-.775.508c-.026,0-.048,0-.073,0a.857.857,0,0,1-.439.651.85.85,0,0,1-.616.779.822.822,0,0,1,.086.37.849.849,0,0,1-.232.581.833.833,0,0,1,.073.345.844.844,0,0,1-.249.6.833.833,0,0,1,.215.56.847.847,0,0,1-.267.616.856.856,0,0,1,.3.651.84.84,0,0,1-.2.546.85.85,0,0,1,.543.793.864.864,0,0,1-.176.517.934.934,0,0,1,.7.908.938.938,0,0,1-.2.577.947.947,0,0,1,.843.939.941.941,0,0,1-.077.371.944.944,0,0,1,.793.93.944.944,0,0,1-.194.569,1.021,1.021,0,0,1,.194-.022.942.942,0,0,1,.942.943.924.924,0,0,1-.077.379,1.011,1.011,0,0,1,.258-.034,1,1,0,0,1,1,1,1.014,1.014,0,0,1-.013.156.99.99,0,0,1,.422-.1,1,1,0,0,1,1,1,1.082,1.082,0,0,1-.008.121,1.023,1.023,0,0,1,.577-.181,1,1,0,0,1,1,1c0,.026,0,.052,0,.077a1,1,0,0,1,.741-.327,1,1,0,0,1,.969.744,1,1,0,0,1,.865-.5,1.008,1.008,0,0,1,.974.762,1,1,0,0,1,.956-.7,1.007,1.007,0,0,1,.784.379,1.01,1.01,0,0,1,.258.413,1,1,0,0,1,.973-.762,1,1,0,0,1,.866.5,1,1,0,0,1,.968-.745,1,1,0,0,1,.741.327.44.44,0,0,1,0-.077,1,1,0,0,1,1-1,.989.989,0,0,1,.577.18c0-.039-.008-.077-.008-.12a1,1,0,0,1,1-1,.989.989,0,0,1,.421.095,1,1,0,0,1-.013-.155,1,1,0,0,1,1-1,1.011,1.011,0,0,1,.258.034,1,1,0,0,1-.077-.379.943.943,0,0,1,.943-.943.945.945,0,0,1,.194.022.923.923,0,0,1-.194-.568.944.944,0,0,1,.792-.931.881.881,0,0,1-.077-.37.946.946,0,0,1,.844-.939.925.925,0,0,1-.2-.577.942.942,0,0,1,.7-.909.845.845,0,0,1-.176-.517.848.848,0,0,1,.543-.792.843.843,0,0,1-.2-.547.844.844,0,0,1,.3-.651.847.847,0,0,1-.267-.616.838.838,0,0,1,.216-.56.831.831,0,0,1-.25-.6.865.865,0,0,1,.073-.345.833.833,0,0,1-.232-.581.822.822,0,0,1,.086-.37.853.853,0,0,1-.616-.779.839.839,0,0,1-.439-.65.507.507,0,0,1-.074,0,.838.838,0,0,1-.775-.508.792.792,0,0,1-.138.013.845.845,0,0,1-.844-.844.845.845,0,0,1,.844-.843.838.838,0,0,1,.775.508.8.8,0,0,1,.138-.013.843.843,0,0,1,.84.749.4.4,0,0,1,.073,0,.844.844,0,0,1,.819.629.859.859,0,0,1,.637.448.847.847,0,0,1,.6.6.847.847,0,0,1,.844.844v.014a.847.847,0,0,1,.715.835.451.451,0,0,1,0,.077.846.846,0,0,1,.62.814.815.815,0,0,1-.1.4.844.844,0,0,1,.7.832.836.836,0,0,1-.176.517.849.849,0,0,1,.5.775.838.838,0,0,1-.344.68.847.847,0,0,1,.486.767.839.839,0,0,1-.383.706.878.878,0,0,1,.56.819.878.878,0,0,1-.563.818.829.829,0,0,1,.426.723.824.824,0,0,1-.546.776.91.91,0,0,1,.534.826.908.908,0,0,1-.521.818.9.9,0,0,1,.478.8.909.909,0,0,1-.642.869.9.9,0,0,1,.474.8.911.911,0,0,1-.844.9.9.9,0,0,1,.526.823.907.907,0,0,1-.832.9.9.9,0,0,1,.538.826.907.907,0,0,1-.878.9.91.91,0,0,1,.581.848.909.909,0,0,1-.908.909.909.909,0,0,1-.909-.909.907.907,0,0,1,.878-.9.911.911,0,0,1-.581-.849.907.907,0,0,1,.832-.9.9.9,0,0,1-.539-.826.911.911,0,0,1,.844-.9.9.9,0,0,1-.525-.823.909.909,0,0,1,.641-.869.906.906,0,0,1-.473-.8.911.911,0,0,1,.521-.819.883.883,0,0,1-.418-.473.92.92,0,0,1-.831.741.925.925,0,0,1,.616.87.924.924,0,0,1-.81.917.962.962,0,0,1,.435.809.973.973,0,0,1-.973.974.913.913,0,0,1-.159-.014.973.973,0,0,1,.671.926.974.974,0,0,1-.925.973.976.976,0,0,1,.353.75.972.972,0,0,1-.973.973,1.047,1.047,0,0,1-.159-.013.967.967,0,0,1,.353.749.972.972,0,0,1-.973.973.914.914,0,0,1-.159-.013,1.071,1.071,0,0,1,.409.844,1.072,1.072,0,0,1-1.072,1.072,1.064,1.064,0,0,1-.353-.06,1.014,1.014,0,0,1,.348.762,1.009,1.009,0,0,1-1.007,1.008A1.009,1.009,0,0,1-614.078-115.212ZM-608.5-128.5a.926.926,0,0,1,.594.56.913.913,0,0,1,.616-.689.837.837,0,0,1-.413-.482A.845.845,0,0,1-608.5-128.5Zm-30.307-.22a.9.9,0,0,1,.62.685.912.912,0,0,1,.589-.555.841.841,0,0,1-.8-.612A.819.819,0,0,1-638.8-128.724Zm30.6-1.412a.852.852,0,0,1,.5.534.821.821,0,0,1,.478-.526.883.883,0,0,1-.409-.439A.863.863,0,0,1-608.2-130.136Zm-30.647-.091a.822.822,0,0,1,.474.53.839.839,0,0,1,.5-.534.845.845,0,0,1-.569-.431A.864.864,0,0,1-638.852-130.227Zm30.591-1.571a.854.854,0,0,1,.646.5.906.906,0,0,1,.319-.348.8.8,0,0,1-.448-.431A.835.835,0,0,1-608.26-131.8Zm-30.526.06a.89.89,0,0,1,.319.348.838.838,0,0,1,.646-.495.861.861,0,0,1-.517-.288A.887.887,0,0,1-638.787-131.738Zm30.5-1.731a.842.842,0,0,1,.668.486.828.828,0,0,1,.142-.133.842.842,0,0,1-.47-.59A.783.783,0,0,1-608.287-133.469Zm-30.324.262a.8.8,0,0,1,.142.134.843.843,0,0,1,.668-.487.854.854,0,0,1-.34-.237A.848.848,0,0,1-638.61-133.207Zm30.263-1.86a.456.456,0,0,1,.065.022c0-.017,0-.034,0-.051A.375.375,0,0,1-608.347-135.068Zm-29.462-.068a.366.366,0,0,1,.065-.022l-.056-.031A.124.124,0,0,1-637.809-135.136Zm28.14-1.3a.887.887,0,0,1,.185.284.882.882,0,0,1,.22-.311.808.808,0,0,1-.237-.263A.866.866,0,0,1-609.669-136.436Zm-27.149-.116a.874.874,0,0,1,.215.31.816.816,0,0,1,.189-.284.8.8,0,0,1-.167-.288A.873.873,0,0,1-636.818-136.553Zm-1.172,20.829a.908.908,0,0,1,.908-.908.909.909,0,0,1,.909.908.909.909,0,0,1-.909.909A.909.909,0,0,1-637.99-115.724Zm-.482-1.843a.908.908,0,0,1,.908-.908.909.909,0,0,1,.909.908.906.906,0,0,1-.909.909A.909.909,0,0,1-638.473-117.567Z" transform="translate(744.001 151.999)"/><path class="a" d="M804.9,602.109a.909.909,0,1,0,.909-.909A.909.909,0,0,0,804.9,602.109Z" transform="translate(-670.814 -565.742)"/><path class="a" d="M816.1,559.409a.909.909,0,1,0,.909-.909A.909.909,0,0,0,816.1,559.409Z" transform="translate(-681.532 -524.881)"/><path class="a" d="M676.1,645.972a1.072,1.072,0,1,0,1.072-1.072A1.072,1.072,0,0,0,676.1,645.972Z" transform="translate(-547.56 -607.56)"/><path class="a" d="M786.9,641.682a.982.982,0,1,0,.982-.982A.981.981,0,0,0,786.9,641.682Z" transform="translate(-653.589 -603.541)"/><path class="a" d="M771.4,687.282a.982.982,0,1,0,.982-.982A.981.981,0,0,0,771.4,687.282Z" transform="translate(-638.757 -647.178)"/><path class="a" d="M751.2,730.582a.982.982,0,1,0,.982-.982A.981.981,0,0,0,751.2,730.582Z" transform="translate(-619.427 -688.613)"/><path class="a" d="M730,771.082a.982.982,0,0,0,1.964,0h0a.982.982,0,0,0-1.964,0Z" transform="translate(-599.139 -727.369)"/><path class="a" d="M704,811.482a.982.982,0,1,0,.982-.982A.981.981,0,0,0,704,811.482Z" transform="translate(-574.259 -766.029)"/></g></svg>