<svg xmlns="http://www.w3.org/2000/svg" viewBox="911.908 1295.045 107.669 107.669"><defs><style>.a{fill:#87655a;}</style></defs><path class="a" d="M299.669,213.034a25.243,25.243,0,0,1-.765,5.391,30.378,30.378,0,0,1-1.606,5.238q-1.606,3.823-9.329,8.106a28.348,28.348,0,0,1-18.238,3.632,33.054,33.054,0,0,1-4.4-.956q-2.447-.688-3.632-1.109t-4.244-1.568q-3.059-1.147-3.747-1.376a69.255,69.255,0,0,1-13.382-6.347A113.438,113.438,0,0,1,220.1,207.567a113.44,113.44,0,0,1-16.479-20.226,69.258,69.258,0,0,1-6.347-13.382q-.229-.688-1.376-3.747t-1.568-4.244q-.421-1.185-1.109-3.632a33.052,33.052,0,0,1-.956-4.4A28.348,28.348,0,0,1,195.9,139.7q4.282-7.723,8.106-9.329a30.378,30.378,0,0,1,5.238-1.606,25.241,25.241,0,0,1,5.391-.765,4.282,4.282,0,0,1,1.606.229q1.376.459,4.053,5.812.841,1.453,2.294,4.129t2.676,4.856q1.224,2.179,2.371,4.091.229.306,1.338,1.912a21.358,21.358,0,0,1,1.644,2.715,4.988,4.988,0,0,1,.535,2.179q0,1.529-2.179,3.823a37.273,37.273,0,0,1-4.741,4.206,46.053,46.053,0,0,0-4.741,4.053q-2.179,2.141-2.179,3.518a5.167,5.167,0,0,0,.382,1.721,16.69,16.69,0,0,0,.65,1.568q.268.535,1.071,1.835t.879,1.453a75.791,75.791,0,0,0,31.276,31.276q.153.076,1.453.879t1.835,1.071a16.7,16.7,0,0,0,1.568.65,5.167,5.167,0,0,0,1.721.382q1.376,0,3.518-2.179a46.058,46.058,0,0,0,4.053-4.741,37.274,37.274,0,0,1,4.206-4.741q2.294-2.179,3.823-2.179a4.988,4.988,0,0,1,2.179.535,21.354,21.354,0,0,1,2.715,1.644q1.606,1.109,1.912,1.338,1.912,1.147,4.091,2.371t4.856,2.676q2.676,1.453,4.129,2.294,5.353,2.676,5.812,4.053A4.282,4.282,0,0,1,299.669,213.034Z" transform="translate(719.908 1167.045)"/></svg>