<svg xmlns="http://www.w3.org/2000/svg" viewBox="583.4 147.4 51.6 51.6"><defs><style>.a{fill:#6d2e2f;}</style></defs><g transform="translate(583.4 147.4)"><path class="a" d="M0,20.963a6.438,6.438,0,0,0,4.838,6.223V48.375H1.613a1.612,1.612,0,1,0,0,3.225H49.988a1.612,1.612,0,1,0,0-3.225H46.763V27.186A6.438,6.438,0,0,0,51.6,20.963V19.35H0Zm32.25,6.45a6.448,6.448,0,0,0,6.45-6.45,6.438,6.438,0,0,0,4.838,6.223V48.375H19.35V27.413a6.448,6.448,0,0,0,6.45-6.45A6.452,6.452,0,0,0,32.25,27.413Zm-14.513-.227V48.375H8.063V27.186A6.438,6.438,0,0,0,12.9,20.963,6.438,6.438,0,0,0,17.738,27.186ZM45.15,4.838H6.45L0,17.738H51.6ZM13.624,8.422,10.4,14.872a.813.813,0,0,1-.724.447.78.78,0,0,1-.359-.085.8.8,0,0,1-.359-1.08L12.182,7.7a.806.806,0,0,1,1.443.718Zm6.45,0-3.225,6.45a.813.813,0,0,1-.724.447.78.78,0,0,1-.359-.085.8.8,0,0,1-.359-1.08L18.632,7.7a.806.806,0,0,1,1.443.718Zm6.532,6.091a.806.806,0,1,1-1.613,0V8.063a.806.806,0,0,1,1.613,0Zm9.259.705a.8.8,0,0,1-1.1-.318L31.242,8.45a.808.808,0,0,1,1.417-.775l3.527,6.45A.81.81,0,0,1,35.866,15.218Zm6.418.016a.753.753,0,0,1-.359.085.8.8,0,0,1-.718-.447l-3.225-6.45A.806.806,0,1,1,39.424,7.7l3.225,6.45A.806.806,0,0,1,42.284,15.234ZM13.706,38.946V35.229a1.6,1.6,0,0,1-.806-1.367,1.613,1.613,0,0,1,3.225,0,1.588,1.588,0,0,1-.806,1.367v3.716a1.588,1.588,0,0,1,.806,1.367,1.613,1.613,0,1,1-2.419-1.367ZM6.45,1.613A1.614,1.614,0,0,1,8.063,0H43.538a1.613,1.613,0,1,1,0,3.225H8.063A1.614,1.614,0,0,1,6.45,1.613ZM28.263,36.045l-1.14-1.14,4.56-4.56,1.14,1.14Zm0,4.56-1.14-1.14,9.121-9.121,1.14,1.14Zm7.981-5.7,1.14,1.14-4.56,4.56-1.14-1.14Z"/></g></svg>