<svg xmlns="http://www.w3.org/2000/svg" viewBox="1478.778 155.431 28.645 34.678"><defs><style>.a{fill:#6d2e2f;}.b{fill:#87655a;}</style></defs><g transform="translate(1478.778 155.431)"><path class="a" d="M100.848,108.371l1.843-2.433a.738.738,0,0,0,.047-.8l-1.953-3.325a.8.8,0,0,0-.662-.378H94.535a.79.79,0,0,0-.663.39l-1.859,3.345a.754.754,0,0,0,.051.791l1.793,2.432a9.613,9.613,0,1,0,6.991-.021ZM97.38,124.238a6.9,6.9,0,1,1,6.9-6.9A6.91,6.91,0,0,1,97.38,124.238Z" transform="translate(-82.856 -92.27)"/><path class="b" d="M178.33,5.684a1.3,1.3,0,0,0,1.3-1.3V1.3a1.3,1.3,0,0,0-2.594,0v3.09A1.3,1.3,0,0,0,178.33,5.684Z" transform="translate(-164.058 0)"/><path class="b" d="M39.078,145.488a1.3,1.3,0,0,0-1.3-1.3H34.691a1.3,1.3,0,1,0,0,2.594h3.09A1.3,1.3,0,0,0,39.078,145.488Z" transform="translate(-33.394 -131.166)"/><path class="b" d="M291.959,144.19h-3.09a1.3,1.3,0,1,0,0,2.594h3.09a1.3,1.3,0,1,0,0-2.594Z" transform="translate(-264.611 -131.165)"/><path class="b" d="M77.645,47.861a1.3,1.3,0,1,0,1.834-1.834l-2.185-2.185a1.3,1.3,0,0,0-1.835,1.835Z" transform="translate(-71.315 -39.536)"/><path class="b" d="M256.107,48.244a1.289,1.289,0,0,0,.917-.38l2.185-2.185a1.3,1.3,0,0,0-1.835-1.834l-2.185,2.185a1.3,1.3,0,0,0,.917,2.214Z" transform="translate(-234.809 -39.539)"/></g></svg>